<svg xmlns="http://www.w3.org/2000/svg" xmlns:xlink="http://www.w3.org/1999/xlink" width="500" zoomAndPan="magnify" viewBox="0 0 375 374.999991" height="500" preserveAspectRatio="xMidYMid meet" version="1.0"><defs><g/></defs><g fill="#ffbd59" fill-opacity="1"><g transform="translate(27.935285, 253.545513)"><g><path d="M 145.726562 -178.917969 L 105.015625 -178.917969 L 105.015625 -70.011719 C 105.015625 -63.527344 105.015625 -57.824219 104.496094 -51.859375 C 103.203125 -36.042969 95.679688 -26.449219 80.640625 -26.449219 C 65.34375 -26.449219 55.488281 -34.488281 53.933594 -58.082031 L 53.414062 -66.640625 L 12.964844 -66.640625 L 13.222656 -58.082031 C 14.261719 -20.484375 34.226562 3.628906 78.828125 3.628906 C 123.167969 3.628906 143.132812 -18.410156 144.949219 -49.527344 C 145.726562 -61.714844 145.726562 -67.417969 145.726562 -75.195312 Z M 145.726562 -178.917969 "/></g></g></g><g fill="#ffbd59" fill-opacity="1"><g transform="translate(174.439215, 253.545513)"><g><path d="M 82.976562 -182.546875 C 48.230469 -182.546875 17.375 -163.097656 17.375 -129.648438 C 17.375 -95.421875 40.710938 -82.714844 79.085938 -73.121094 C 103.460938 -67.417969 111.757812 -58.859375 111.757812 -46.414062 C 111.757812 -34.226562 100.089844 -26.449219 85.308594 -26.449219 C 68.972656 -26.449219 54.710938 -35.265625 51.082031 -53.675781 L 10.113281 -53.675781 C 13.222656 -15.039062 42.265625 3.628906 86.085938 3.628906 C 121.871094 3.628906 154.285156 -15.039062 154.285156 -49.785156 C 154.285156 -78.050781 137.167969 -96.71875 97.757812 -106.054688 C 68.972656 -112.796875 59.898438 -120.054688 59.898438 -133.539062 C 59.898438 -146.503906 68.972656 -152.46875 81.679688 -152.46875 C 98.792969 -152.46875 108.128906 -141.835938 110.203125 -125.242188 L 151.171875 -125.242188 C 147.28125 -157.652344 127.574219 -182.546875 82.976562 -182.546875 Z M 82.976562 -182.546875 "/></g></g></g><path stroke-linecap="butt" transform="matrix(0.991813, 0, 0, 0.991813, 12.771864, 28.846097)" fill="none" stroke-linejoin="miter" d="M 150.664751 34.620938 L 109.62564 34.620938 L 109.62564 144.406469 C 109.62564 150.916801 109.62564 156.72608 109.113635 162.724407 C 107.774547 178.683186 100.177192 188.320682 85.053373 188.320682 C 69.606598 188.320682 59.7131 180.21526 58.114071 156.407062 L 57.606006 147.789636 L 16.818958 147.789636 L 17.07496 156.407062 C 18.09503 194.319009 38.26406 218.639212 83.202281 218.639212 C 127.943577 218.639212 148.049591 196.426103 149.900683 165.087503 C 150.664751 152.767893 150.664751 147.02163 150.664751 139.17221 Z M 235.125764 30.918753 C 200.084979 30.918753 168.935427 50.579717 168.935427 84.281414 C 168.935427 118.810194 192.487623 131.574855 231.167577 141.279305 C 255.743782 147.02163 264.105205 155.639055 264.105205 168.214668 C 264.105205 180.467324 252.360615 188.320682 237.48886 188.320682 C 221.022015 188.320682 206.59531 179.447254 202.956141 160.873314 L 161.661028 160.873314 C 164.788192 199.80927 194.086652 218.639212 238.252928 218.639212 C 274.317721 218.639212 306.995409 199.80927 306.995409 164.831501 C 306.995409 136.301048 289.764496 117.471106 249.997518 108.089612 C 221.022015 101.256325 211.829569 93.981926 211.829569 80.386243 C 211.829569 67.302565 221.022015 61.300299 233.786675 61.300299 C 251.084543 61.300299 260.466036 71.961803 262.573131 88.747667 L 303.868245 88.747667 C 299.977012 56.06604 280.060046 30.918753 235.125764 30.918753 Z M 235.125764 30.918753 " stroke="#2e4756" stroke-width="9.804075" stroke-opacity="1" stroke-miterlimit="4"/><g fill="#ffbd59" fill-opacity="1"><g transform="translate(27.404069, 325.603716)"><g><path d="M 28.550781 -11.945312 L 32.410156 0 L 42.824219 0 L 27.753906 -42.273438 L 15.867188 -42.273438 L 0.613281 0 L 10.84375 0 L 14.765625 -11.945312 Z M 21.6875 -33.941406 L 26.160156 -19.484375 L 17.15625 -19.484375 Z M 21.6875 -33.941406 "/></g></g></g><g fill="#ffbd59" fill-opacity="1"><g transform="translate(66.61289, 325.603716)"><g><path d="M 21.625 -33.511719 C 19.726562 -33.511719 17.339844 -32.65625 15.683594 -30.9375 L 13.234375 -26.40625 L 13.234375 -32.65625 L 3.613281 -32.65625 L 3.613281 0 L 13.234375 0 L 13.234375 -13.664062 C 13.234375 -22.914062 16.480469 -25.976562 24.078125 -25.488281 L 24.078125 -33.265625 C 23.34375 -33.390625 22.667969 -33.511719 21.625 -33.511719 Z M 21.625 -33.511719 "/></g></g></g><g fill="#ffbd59" fill-opacity="1"><g transform="translate(87.932622, 325.603716)"><g><path d="M 18.320312 -33.511719 C 9.066406 -33.511719 1.59375 -27.261719 1.59375 -16.050781 C 1.59375 -4.960938 8.453125 0.859375 17.523438 0.859375 C 26.039062 0.859375 32.289062 -3.371094 33.574219 -11.578125 L 24.078125 -11.578125 C 23.34375 -7.78125 21.015625 -5.757812 18.074219 -5.757812 C 14.089844 -5.757812 11.457031 -9.066406 11.457031 -16.664062 C 11.457031 -23.585938 14.03125 -26.894531 18.074219 -26.894531 C 21.257812 -26.894531 23.527344 -25.058594 24.199219 -20.585938 L 33.574219 -20.585938 C 33.082031 -27.875 27.445312 -33.511719 18.320312 -33.511719 Z M 18.320312 -33.511719 "/></g></g></g><g fill="#ffbd59" fill-opacity="1"><g transform="translate(119.973549, 325.603716)"><g><path d="M 35.105469 -24.507812 C 34.371094 -30.203125 30.386719 -33.511719 23.527344 -33.511719 C 20.464844 -33.511719 18.136719 -32.898438 15.929688 -31.429688 L 13.234375 -27.507812 L 13.234375 -45.335938 L 3.613281 -45.335938 L 3.613281 0 L 13.234375 0 L 13.234375 -15.132812 C 13.234375 -23.464844 16.050781 -26.835938 19.851562 -26.894531 C 23.585938 -26.894531 25.425781 -24.8125 25.671875 -21.503906 C 25.792969 -19.851562 25.792969 -18.195312 25.792969 -16.972656 L 25.792969 0 L 35.410156 0 L 35.410156 -18.441406 C 35.410156 -21.074219 35.351562 -22.851562 35.105469 -24.507812 Z M 35.105469 -24.507812 "/></g></g></g><g fill="#ffbd59" fill-opacity="1"><g transform="translate(155.56779, 325.603716)"><g><path d="M 8.394531 -45.277344 C 5.332031 -45.277344 3.308594 -43.375 3.308594 -40.4375 C 3.308594 -37.433594 5.332031 -35.535156 8.394531 -35.535156 C 11.457031 -35.535156 13.539062 -37.433594 13.539062 -40.4375 C 13.539062 -43.375 11.457031 -45.277344 8.394531 -45.277344 Z M 13.234375 0 L 13.234375 -32.65625 L 3.613281 -32.65625 L 3.613281 0 Z M 13.234375 0 "/></g></g></g><g fill="#ffbd59" fill-opacity="1"><g transform="translate(169.413315, 325.603716)"><g><path d="M 36.085938 -32.65625 L 25.671875 -32.65625 L 18.195312 -7.414062 L 10.660156 -32.65625 L 0 -32.65625 L 12.804688 0 L 23.34375 0 Z M 36.085938 -32.65625 "/></g></g></g><g fill="#ffbd59" fill-opacity="1"><g transform="translate(202.18942, 325.603716)"><g><path d="M 34.308594 -16.910156 C 34.308594 -25.609375 28.917969 -33.511719 18.503906 -33.511719 C 8.148438 -33.511719 1.59375 -26.039062 1.59375 -16.234375 C 1.59375 -4.71875 8.761719 0.859375 17.890625 0.859375 C 25.855469 0.859375 31.980469 -3.125 33.757812 -10.660156 L 24.261719 -10.660156 C 23.710938 -7.597656 21.441406 -5.757812 18.074219 -5.757812 C 14.457031 -5.757812 11.761719 -7.597656 11.210938 -13.847656 L 34.125 -13.847656 C 34.246094 -15.011719 34.308594 -16.050781 34.308594 -16.910156 Z M 18.074219 -26.894531 C 21.625 -26.894531 23.769531 -24.507812 24.324219 -19.910156 L 11.457031 -19.910156 C 12.253906 -24.75 14.644531 -26.894531 18.074219 -26.894531 Z M 18.074219 -26.894531 "/></g></g></g><g fill="#ffbd59" fill-opacity="1"><g transform="translate(235.149303, 325.603716)"><g/></g></g><g fill="#ffbd59" fill-opacity="1"><g transform="translate(243.481056, 325.603716)"><g><path d="M 36.574219 -8.085938 L 14.828125 -8.085938 L 14.828125 -42.273438 L 5.207031 -42.273438 L 5.207031 0 L 36.574219 0 Z M 36.574219 -8.085938 "/></g></g></g><g fill="#ffbd59" fill-opacity="1"><g transform="translate(278.095074, 325.603716)"><g><path d="M 8.394531 -45.277344 C 5.332031 -45.277344 3.308594 -43.375 3.308594 -40.4375 C 3.308594 -37.433594 5.332031 -35.535156 8.394531 -35.535156 C 11.457031 -35.535156 13.539062 -37.433594 13.539062 -40.4375 C 13.539062 -43.375 11.457031 -45.277344 8.394531 -45.277344 Z M 13.234375 0 L 13.234375 -32.65625 L 3.613281 -32.65625 L 3.613281 0 Z M 13.234375 0 "/></g></g></g><g fill="#ffbd59" fill-opacity="1"><g transform="translate(291.940598, 325.603716)"><g><path d="M 16.113281 -33.511719 C 7.902344 -33.511719 2.511719 -29.589844 2.511719 -23.21875 C 2.511719 -17.644531 6.496094 -14.886719 12.621094 -13.355469 C 18.378906 -12.007812 20.464844 -10.722656 20.464844 -8.394531 C 20.464844 -6.308594 18.625 -5.332031 16.296875 -5.332031 C 13.601562 -5.332031 11.394531 -6.984375 10.722656 -10.046875 L 1.226562 -10.046875 C 2.082031 -2.695312 7.902344 0.859375 16.234375 0.859375 C 23.894531 0.859375 30.082031 -2.328125 30.082031 -9.128906 C 30.082031 -15.253906 26.039062 -17.890625 19.726562 -19.484375 C 13.90625 -20.953125 12.128906 -22.179688 12.128906 -24.382812 C 12.128906 -26.097656 13.417969 -27.386719 15.5 -27.386719 C 17.890625 -27.386719 19.300781 -25.855469 19.851562 -23.160156 L 29.347656 -23.160156 C 28.550781 -29.101562 24.015625 -33.511719 16.113281 -33.511719 Z M 16.113281 -33.511719 "/></g></g></g><g fill="#ffbd59" fill-opacity="1"><g transform="translate(320.183179, 325.603716)"><g><path d="M 15.132812 -26.28125 L 22.054688 -26.28125 L 22.054688 -32.410156 L 15.132812 -32.410156 L 15.132812 -40.621094 L 5.515625 -40.621094 L 5.515625 -32.410156 L 0.550781 -32.410156 L 0.550781 -26.28125 L 5.515625 -26.28125 L 5.515625 -11.273438 C 5.515625 -9.433594 5.515625 -7.964844 5.636719 -6.308594 C 6.003906 -1.53125 8.332031 0.796875 15.5 0.796875 C 17.582031 0.796875 19.484375 0.613281 21.441406 0.304688 L 21.441406 -5.820312 C 16.542969 -5.515625 15.4375 -6.25 15.195312 -9.496094 C 15.132812 -10.355469 15.132812 -11.457031 15.132812 -12.558594 Z M 15.132812 -26.28125 "/></g></g></g><path stroke-linecap="butt" transform="matrix(1.07806, 0, 0, 1.07806, 17.72273, 268.993079)" fill="none" stroke-linejoin="miter" d="M 32.954822 38.914569 L 36.534749 49.998573 L 46.19113 49.998573 L 32.204777 10.78968 L 21.189618 10.78968 L 7.036589 49.998573 L 16.526293 49.998573 L 20.164194 38.914569 Z M 26.588495 18.518409 L 30.733673 31.921393 L 22.381719 31.921393 Z M 62.902285 18.906113 C 61.137686 18.906113 58.92016 19.71051 57.394706 21.308432 L 55.119206 25.511585 L 55.119206 19.71051 L 46.194753 19.71051 L 46.194753 49.998573 L 55.119206 49.998573 L 55.119206 37.33114 C 55.119206 28.743664 58.126634 25.89929 65.177785 26.359462 L 65.177785 19.141635 C 64.496584 19.032932 63.873358 18.906113 62.902285 18.906113 Z M 79.609817 18.906113 C 71.022341 18.906113 64.083516 24.707188 64.083516 35.113615 C 64.083516 45.393222 70.453466 50.792099 78.863395 50.792099 C 86.76967 50.792099 92.570745 46.878819 93.762846 39.262416 L 84.954343 39.262416 C 84.273142 42.784368 82.109968 44.65767 79.374295 44.65767 C 75.685667 44.65767 73.24349 41.592267 73.24349 34.54474 C 73.24349 28.120438 75.627692 25.055036 79.374295 25.055036 C 82.330996 25.055036 84.439819 26.761661 85.063045 30.910462 L 93.762846 30.910462 C 93.306297 24.138314 88.074097 18.906113 79.609817 18.906113 Z M 124.898787 27.272561 C 124.217586 21.986009 120.528957 18.906113 114.159007 18.906113 C 111.314632 18.906113 109.151458 19.474988 107.11148 20.84826 L 104.614952 24.486161 L 104.614952 7.945306 L 95.694123 7.945306 L 95.694123 49.998573 L 104.614952 49.998573 L 104.614952 35.957869 C 104.614952 28.229141 107.223805 25.109387 110.745757 25.055036 C 114.216982 25.055036 115.923607 26.982688 116.144634 30.048091 C 116.253337 31.588039 116.253337 33.113494 116.253337 34.251244 L 116.253337 49.998573 L 125.177789 49.998573 L 125.177789 32.892466 C 125.177789 30.450289 125.119815 28.798016 124.898787 27.272561 Z M 133.134792 8.00328 C 130.290417 8.00328 128.417116 9.764256 128.417116 12.496305 C 128.417116 15.271835 130.290417 17.032811 133.134792 17.032811 C 135.979167 17.032811 137.910443 15.271835 137.910443 12.496305 C 137.910443 9.764256 135.979167 8.00328 133.134792 8.00328 Z M 137.631441 49.998573 L 137.631441 19.71051 L 128.710612 19.71051 L 128.710612 49.998573 Z M 171.673354 19.71051 L 162.002479 19.71051 L 155.081771 43.117722 L 148.088595 19.71051 L 138.196692 19.71051 L 150.070599 49.998573 L 159.853799 49.998573 Z M 200.425092 34.320089 C 200.425092 26.247137 195.417543 18.906113 185.761162 18.906113 C 176.159132 18.906113 170.068184 25.844938 170.068184 34.946938 C 170.068184 45.628743 176.728007 50.792099 185.192287 50.792099 C 192.587662 50.792099 198.261918 47.099847 199.914192 40.10667 L 191.102065 40.10667 C 190.591164 42.951045 188.493211 44.65767 185.358964 44.65767 C 182.014559 44.65767 179.503538 42.951045 179.003507 37.153593 L 200.247545 37.153593 C 200.370741 36.070194 200.425092 35.113615 200.425092 34.320089 Z M 185.358964 25.055036 C 188.659888 25.055036 190.645516 27.272561 191.160039 31.533688 L 179.224535 31.533688 C 179.960087 27.03704 182.181236 25.055036 185.358964 25.055036 Z M 240.822462 42.494496 L 220.650953 42.494496 L 220.650953 10.78968 L 211.730124 10.78968 L 211.730124 49.998573 L 240.822462 49.998573 Z M 246.790214 8.00328 C 243.945839 8.00328 242.072538 9.764256 242.072538 12.496305 C 242.072538 15.271835 243.945839 17.032811 246.790214 17.032811 C 249.634589 17.032811 251.565865 15.271835 251.565865 12.496305 C 251.565865 9.764256 249.634589 8.00328 246.790214 8.00328 Z M 251.286863 49.998573 L 251.286863 19.71051 L 242.366034 19.71051 L 242.366034 49.998573 Z M 266.795047 18.906113 C 259.175021 18.906113 254.181966 22.554884 254.181966 28.468285 C 254.181966 33.628018 257.870594 36.19339 263.559344 37.610143 C 268.90387 38.860218 270.831523 40.052319 270.831523 42.215493 C 270.831523 44.143146 269.124898 45.059868 266.972594 45.059868 C 264.461573 45.059868 262.421594 43.51992 261.798368 40.675545 L 252.989865 40.675545 C 253.779767 47.502045 259.175021 50.792099 266.903749 50.792099 C 274.009251 50.792099 279.752352 47.835398 279.752352 41.537916 C 279.752352 35.849166 276.005749 33.40699 270.150322 31.921393 C 264.755069 30.562615 263.102795 29.424865 263.102795 27.384887 C 263.102795 25.790587 264.294896 24.594863 266.226172 24.594863 C 268.443697 24.594863 269.748124 26.011615 270.262648 28.522637 L 279.071152 28.522637 C 278.3356 23.000564 274.132447 18.906113 266.795047 18.906113 Z M 292.090055 25.623911 L 298.514356 25.623911 L 298.514356 19.935161 L 292.090055 19.935161 L 292.090055 12.315135 L 283.169225 12.315135 L 283.169225 19.935161 L 278.560251 19.935161 L 278.560251 25.623911 L 283.169225 25.623911 L 283.169225 39.537795 C 283.169225 41.24442 283.169225 42.617692 283.277928 44.143146 C 283.611281 48.585444 285.778079 50.734124 292.423408 50.734124 C 294.365554 50.734124 296.126531 50.567448 297.945481 50.277575 L 297.945481 44.603319 C 293.394481 44.878698 292.365434 44.201121 292.144406 41.190069 C 292.090055 40.400166 292.090055 39.371119 292.090055 38.345694 Z M 292.090055 25.623911 " stroke="#2e4756" stroke-width="2.131151" stroke-opacity="1" stroke-miterlimit="4"/></svg>